PathFileType	4	(X/Y/Z)	TVC_36_BWA_06_walk_RCNL2025.trc
DataRate	CameraRate	NumFrames	NumMarkers	Units	OrigDataRate	OrigDataStartFrame	OrigNumFrames
100	100	8	27	mm	100	536	714
Frame#	Time	R_Shoulder			L_Shoulder			C7			J_Notch			R_Elbow			L_Elbow			R_Wrist			L_Wrist			R_Asis			L_Asis			R_Psis			L_Psis			Sacral			Thoracic			Sternum			R_Thigh_Lateral			R_Knee_Lateral			R_Shank_Lateral			R_Ankle_Lateral			R_Heel			R_Toe			L_Thigh_Lateral			L_Knee_Lateral			L_Shank_Lateral			L_Ankle_Lateral			L_Heel			L_Toe		
		X1	Y1	Z1	X2	Y2	Z2	X3	Y3	Z3	X4	Y4	Z4	X5	Y5	Z5	X6	Y6	Z6	X7	Y7	Z7	X8	Y8	Z8	X9	Y9	Z9	X10	Y10	Z10	X11	Y11	Z11	X12	Y12	Z12	X13	Y13	Z13	X14	Y14	Z14	X15	Y15	Z15	X16	Y16	Z16	X17	Y17	Z17	X18	Y18	Z18	X19	Y19	Z19	X20	Y20	Z20	X21	Y21	Z21	X22	Y22	Z22	X23	Y23	Z23	X24	Y24	Z24	X25	Y25	Z25	X26	Y26	Z26	X27	Y27	Z27
536	5.35000000	961.718994	1398.855957	642.598389	821.114441	1360.090210	324.926605	862.441223	1436.256470	493.534210	1005.610413	1308.663452	449.965729	938.467712	1120.062134	768.999207	756.155090	1066.192871	250.748917	1039.858002	919.342896	764.999359	943.679382	963.645264	283.268616	1019.371338	900.185669	592.936157	944.135010	916.780212	335.876801	834.203003	906.726868	555.254639	808.747986	901.266296	474.845367	821.475494	903.996582	515.050003	822.718018	1142.658691	522.189697	1043.107544	1160.407715	434.057281	971.406372	621.907593	651.080322	956.551453	447.298706	556.421204	863.089233	257.788300	595.694031	819.213135	72.578644	511.847931	774.018555	64.910736	459.300385	941.521973	43.400677	486.122253	1025.062256	731.094482	217.591278	1159.620850	574.297302	238.647278	1145.671265	372.908142	177.444611	1235.592773	172.580841	206.942474	1197.390259	143.489761	251.320587	1365.487671	183.339813	235.119446
537	5.36000000	962.126282	1397.658813	643.768311	822.769226	1360.210327	325.451447	863.662048	1435.871582	494.283600	1006.968872	1308.586304	450.745880	939.918640	1117.843140	768.389648	757.869934	1066.557983	250.327423	1042.705200	917.871826	762.632263	945.398132	963.990479	282.744858	1021.227234	899.903442	592.482544	946.561462	916.638489	334.304230	836.492798	906.302734	553.843445	811.184814	900.969238	473.264252	823.838806	903.635986	513.553848	824.496399	1141.878906	521.372498	1044.930664	1160.500977	434.394745	972.652344	621.795227	650.767395	957.864197	447.028717	556.318604	863.458008	257.984222	595.578308	819.224731	72.684677	511.784393	774.115967	65.097900	459.132935	941.495605	43.403130	486.304291	1029.156372	730.345947	217.907242	1164.009399	573.825867	240.512115	1150.674438	372.149902	180.104706	1240.523193	172.013046	211.041138	1202.071411	143.095703	255.284592	1370.236084	182.894882	240.193359
538	5.37000000	962.593872	1396.475952	644.893555	824.556763	1360.365356	325.906952	864.946472	1435.497681	494.995087	1008.425415	1308.529785	451.506775	941.451355	1115.660034	767.698486	759.788025	1066.949829	249.807312	1046.037964	916.642151	760.273651	947.369995	964.449463	282.112244	1023.120117	899.635132	592.038025	949.126038	916.516357	332.870056	838.770630	906.001953	552.419189	813.640015	900.762634	471.664520	826.205322	903.382294	512.041855	826.351929	1141.136475	520.504822	1046.849731	1160.604248	434.719391	973.807495	621.684448	650.439331	959.108459	446.772797	556.195190	863.806885	258.188293	595.441589	819.236389	72.797333	511.710449	774.213867	65.278603	458.955231	941.470398	43.402153	486.474121	1033.236206	729.550903	218.347687	1168.105469	573.105347	242.504883	1155.250366	371.163635	182.810471	1244.837524	171.142761	215.173935	1206.086914	142.416550	259.227966	1374.345947	182.047424	245.383789
539	5.38000000	963.127014	1395.310059	645.969055	826.479858	1360.552246	326.291718	866.299377	1435.132080	495.664825	1009.983093	1308.489624	452.247040	943.053467	1113.514526	766.921814	761.915649	1067.369629	249.176773	1049.890106	915.680756	757.931091	949.600800	965.027740	281.375397	1025.046997	899.378601	591.609314	951.852478	916.396301	331.600250	841.018555	905.823364	550.982483	816.111877	900.638855	470.046753	828.565216	903.231110	510.514618	828.282532	1140.430786	519.585938	1048.864624	1160.712524	435.032257	974.875488	621.572510	650.092407	960.280579	446.529694	556.045715	864.131165	258.389374	595.280762	819.249268	72.910690	511.626801	774.310059	65.446777	458.767975	941.447693	43.398544	486.625763	1037.329590	728.719116	218.909805	1171.929688	572.148865	244.610718	1159.419922	369.963623	185.536362	1248.553589	169.983078	219.310883	1209.452271	141.465927	263.113861	1377.830200	180.807953	250.658524
540	5.39000000	963.730286	1394.163208	646.989929	828.541199	1360.766602	326.604462	867.725891	1434.771118	496.288452	1011.644836	1308.460693	452.965088	944.707336	1111.406006	766.058411	764.259277	1067.817749	248.423874	1054.239075	914.991364	755.595184	952.094360	965.727386	280.541229	1027.004517	899.131042	591.201599	954.760010	916.259521	330.515381	843.220703	905.761780	549.533447	818.599182	900.588745	468.412323	830.909943	903.175262	508.972885	830.285828	1139.760376	518.615295	1050.975098	1160.820312	435.334290	975.863464	621.456238	649.723877	961.376831	446.297729	555.866516	864.431152	258.576233	595.094910	819.263123	73.017342	511.535614	774.401550	65.595764	458.574707	941.427612	43.393436	486.754242	1041.457520	727.856506	219.585312	1175.501709	570.969666	246.811951	1163.203491	368.564117	188.259369	1251.691284	168.548401	223.425369	1212.187622	140.260208	266.911102	1380.705933	179.189804	255.984818
541	5.40000000	964.407532	1393.036499	647.951416	830.743347	1361.003418	326.843750	869.231262	1434.411133	496.861176	1013.413269	1308.437622	453.659271	946.393494	1109.332397	765.110107	766.825317	1068.293579	247.537384	1058.994568	914.548950	753.235779	954.852173	966.546600	279.618759	1028.989380	898.889160	590.818298	957.863098	916.086914	329.629578	845.364014	905.808899	548.072327	821.101440	900.602234	466.763550	833.232727	903.205566	507.417938	832.360046	1139.123657	517.592590	1053.180664	1160.921631	435.626160	976.781616	621.332458	649.332153	962.394531	446.075165	555.655823	864.711548	258.738831	594.886169	819.276611	73.109367	511.440094	774.484253	65.719116	458.381744	941.409607	43.388016	486.856354	1045.632446	726.964539	220.360809	1178.838501	569.580688	249.088516	1166.620117	366.978821	190.959610	1254.272583	166.853928	227.494553	1214.317871	138.817993	270.594971	1382.994263	177.209183	261.330078
542	5.41000000	965.162354	1391.930176	648.848816	833.089111	1361.256836	327.008057	870.821167	1434.047852	497.377930	1015.291077	1308.414185	454.327637	948.093628	1107.290894	764.081543	769.619873	1068.795410	246.507370	1063.996826	914.297607	750.801727	957.873322	967.479614	278.618713	1030.998169	898.649597	590.461182	961.169678	915.860046	328.949799	847.439331	905.953308	546.599365	823.618713	900.668579	465.103821	835.529022	903.310944	505.851593	834.503418	1138.517944	516.517822	1055.481201	1161.010254	435.908325	977.642700	621.198547	648.917664	963.332153	445.860229	555.414185	864.979309	258.869019	594.658997	819.287476	73.179550	511.343903	774.553650	65.811386	458.197418	941.392395	43.383217	486.931000	1049.856445	726.040222	221.218491	1181.954346	567.994446	251.418686	1169.687256	365.220459	193.620834	1256.322021	164.915405	231.499542	1215.872803	137.159409	274.147400	1384.721069	174.885239	266.662415
543	5.42000000	965.997986	1390.843872	649.677795	835.581360	1361.520874	327.095490	872.501160	1433.677124	497.833374	1017.280579	1308.384521	454.968079	949.793518	1105.279297	762.980286	772.648621	1069.320923	245.325897	1069.031311	914.155640	748.226562	961.154755	968.517181	277.552994	1033.028076	898.409058	590.130493	964.680664	915.562500	328.475037	849.442383	906.181458	545.115479	826.151733	900.776733	463.437347	837.797058	903.479095	504.276413	836.715027	1137.940552	515.391296	1057.876221	1161.079712	436.180847	978.460449	621.052673	648.482605	964.189880	445.651276	555.144470	865.240662	258.961792	594.419678	819.293457	73.222801	511.250885	774.604919	65.869034	458.030945	941.374329	43.379623	486.979370	1054.119995	725.075378	222.137100	1184.860596	566.222656	253.779800	1172.420166	363.300507	196.230713	1257.866211	162.748825	235.425598	1216.886230	135.305298	277.556976	1385.916138	172.239883	271.951233
